<?xml version="1.0" standalone="no"?>
<!DOCTYPE svg PUBLIC "-//W3C//DTD SVG 20010904//EN"
 "http://www.w3.org/TR/2001/REC-SVG-20010904/DTD/svg10.dtd">
<svg version="1.0" xmlns="http://www.w3.org/2000/svg"
 width="300.000000pt" height="300.000000pt" viewBox="0 0 300.000000 300.000000"
 preserveAspectRatio="xMidYMid meet">
<metadata>
Created by potrace 1.10, written by Peter Selinger 2001-2011
</metadata>
<g transform="translate(0.000000,300.000000) scale(0.100000,-0.100000)"
fill="#000000" stroke="none">
<path d="M1110 2193 c0 -2 0 -179 0 -393 l0 -390 390 0 390 0 0 390 0 390
-390 3 c-214 1 -390 1 -390 0z m761 -393 l0 -370 -371 -3 -370 -2 0 375 0 375
370 -2 371 -3 0 -370z"/>
<path d="M1442 2042 c-19 -13 -29 -13 -56 -4 -18 7 -42 12 -55 12 -24 0 -81
-26 -81 -38 0 -4 15 -49 32 -99 33 -92 56 -124 44 -59 -8 42 5 48 80 40 64 -8
66 -5 62 93 l-3 71 -23 -16z m-84 -32 c15 -24 37 -27 28 -4 -5 12 -2 15 10 10
8 -3 20 -6 25 -6 5 0 9 -7 9 -15 0 -8 -9 -15 -19 -15 -14 0 -18 -5 -14 -20 7
-26 33 -26 33 -1 0 11 5 23 10 26 6 3 10 -3 10 -14 0 -11 -5 -23 -11 -26 -6
-4 -8 -13 -5 -21 9 -23 -14 -16 -45 15 -16 16 -29 37 -29 46 0 13 -6 16 -25
11 -14 -4 -25 -4 -25 -2 0 2 -3 11 -6 20 -9 24 38 21 54 -4z m-38 -40 c6 -11
19 -20 29 -20 27 0 34 -27 10 -33 -12 -3 -22 0 -26 9 -3 8 -12 13 -20 10 -8
-4 -17 3 -22 17 -15 38 10 53 29 17z"/>
<path d="M1502 1807 c-100 -101 -180 -186 -177 -189 6 -6 375 353 375 365 0
19 -30 -7 -198 -176z"/>
<path d="M1600 1705 c0 -9 9 -15 25 -15 24 0 25 -2 25 -66 0 -57 2 -65 18 -62
14 3 17 14 16 66 -1 62 -1 62 28 62 18 0 28 5 28 15 0 12 -14 15 -70 15 -56 0
-70 -3 -70 -15z"/>
<path d="M833 1163 c-95 -3 -103 -5 -103 -23 0 -17 7 -20 40 -20 l40 0 0 -95
0 -95 28 0 27 0 -3 95 -3 95 40 0 c37 0 41 2 41 25 0 14 -1 24 -2 23 -2 -1
-49 -4 -105 -5z"/>
<path d="M1940 1080 c0 -94 -8 -110 -51 -110 -43 0 -54 23 -51 111 l3 79 -32
0 -31 0 4 -89 c3 -77 6 -93 26 -114 31 -33 81 -42 126 -23 46 19 53 36 57 138
l4 86 -27 5 -28 4 0 -87z"/>
<path d="M979 1081 c-21 -21 -29 -39 -29 -64 0 -40 37 -86 72 -88 70 -3 117
14 98 36 -7 9 -24 11 -50 8 -37 -5 -70 7 -70 26 0 4 32 5 70 3 l70 -4 0 27 c0
16 -11 38 -29 56 -41 40 -91 40 -132 0z m99 -23 c21 -21 13 -28 -33 -28 -25 0
-45 4 -45 8 0 15 24 32 45 32 12 0 26 -5 33 -12z"/>
<path d="M1198 1099 c-31 -18 -10 -37 40 -36 37 2 47 -2 50 -15 3 -15 -4 -18
-41 -18 -66 0 -100 -47 -59 -82 27 -25 55 -29 85 -13 15 7 27 10 27 4 0 -5 10
-9 23 -9 22 0 23 3 19 73 -3 57 -8 76 -24 90 -22 19 -92 23 -120 6z m90 -111
c-2 -18 -10 -23 -33 -23 -37 0 -41 26 -5 36 39 11 42 10 38 -13z"/>
<path d="M1410 1020 c0 -89 0 -90 25 -90 24 0 25 3 25 59 0 64 15 87 50 76 17
-6 20 -15 20 -71 l0 -64 30 0 c29 0 29 1 32 61 2 45 8 65 20 72 30 19 48 -8
48 -74 0 -56 1 -59 25 -59 24 0 25 2 25 70 0 57 -4 74 -20 90 -24 24 -67 26
-97 5 -18 -13 -22 -13 -33 0 -14 17 -76 20 -85 5 -3 -5 -11 -10 -16 -10 -6 0
-7 5 -4 10 4 6 -5 10 -19 10 -26 0 -26 0 -26 -90z"/>
<path d="M2060 985 l0 -125 25 0 c23 0 25 4 25 44 0 45 0 45 25 32 86 -45 166
86 92 150 -30 26 -85 32 -105 12 -9 -9 -12 -9 -12 0 0 7 -11 12 -25 12 l-25 0
0 -125z m136 60 c15 -23 15 -27 0 -50 -28 -42 -86 -28 -86 21 0 52 58 71 86
29z"/>
</g>
</svg>
